<svg xmlns="http://www.w3.org/2000/svg" viewBox="0 0 459.73 409.49"><defs><style>.cls-1,.cls-4,.cls-8{fill:#edede2;}.cls-2{fill:#2b2b2b;}.cls-3,.cls-7{fill:none;stroke:#edede2;}.cls-3{stroke-miterlimit:10;stroke-width:1.27px;}.cls-4{font-size:60.56px;letter-spacing:0.06em;}.cls-4,.cls-8{font-family:FranklinGothic-Medium, Franklin Gothic Medium;font-weight:500;}.cls-5{letter-spacing:0.05em;}.cls-6{letter-spacing:0.06em;}.cls-7{stroke-linecap:round;stroke-linejoin:round;stroke-width:2.53px;}.cls-8{font-size:45.42px;letter-spacing:0em;}.cls-9{letter-spacing:0.06em;}</style></defs><title>118917-OPSR5G-477</title><g id="OBJECTS"><path class="cls-1" d="M189.84,140c4.13-5.18,9.19-8.25,15.33-9.12,1.76-.25,3.87.77,5.57,1.68,6.13,3.28,7,4.95,11.67-2.47a14.52,14.52,0,0,1,1.89-2.32c1.61-1.64,3.49-2.18,5.31-.53,2.21,2,4.27,4.19,6.3,6.38,3.19,3.46,5.1,3.48,8.35.15a49.84,49.84,0,0,1,6.2-5.71,10.38,10.38,0,0,1,13.07.91c1.23,1.08,2.29,2.34,3.43,3.52,2.79,2.86,5.09,3.36,8.54,1.36a81.84,81.84,0,0,0,7.6-5.28c4.32-3.2,6.42-3.11,10.1.82,1.86,2,3.47,4.21,5.31,6.22,2.3,2.5,3.39,2.31,6.36.68a16.86,16.86,0,0,1,6.61-1.86c2-.16,2.83,1.45,1.71,3.16-2.3,3.47-5.27,6.3-9.39,7.51a6.64,6.64,0,0,1-7.16-2.15,67.75,67.75,0,0,0-4.9-5.12c-2.33-2.06-4.36-2-6.83.07s-4.57,4.45-7.07,6.39c-1.46,1.14-3.38,2.35-5.08,2.32a10.54,10.54,0,0,1-5.78-2.28c-2.06-1.58-3.54-3.89-5.4-5.76-2.62-2.62-4.89-2.63-8-.6a53.55,53.55,0,0,1-8.24,4.71c-4.91,2-9.41,1.08-13.26-2.76-3.41-3.4-4.93-3.62-8.61-.43-4.27,3.7-8.6,3.84-13.32,1.3-3.23-1.72-6.26-2.13-9.83-.35C197.17,142,193.59,141.66,189.84,140Z" transform="translate(-20.18 -45.84)"/><path class="cls-1" d="M193.24,125.22a13.68,13.68,0,0,1,5.56-3.61c2.56-.85,4.81-.07,6.68,2l1.53,1.75,12.84-.39c1-1,2-2.07,3.05-3,1.33-1.15,3.1-2.4,4.67-2.39a9.36,9.36,0,0,1,5.41,2.18,18.34,18.34,0,0,1,2.62,2.73l15.75-.48c.58-.33,1.17-.64,1.77-.92a9.65,9.65,0,0,1,10,.57l14.6-.44a8.46,8.46,0,0,1,4.76-.14l19.44-.59a6.44,6.44,0,0,0,6-6.84l-.07-2.49a6.45,6.45,0,0,0-6.38-6.47l-106.12,3.2a6.46,6.46,0,0,0-6,6.84l.08,2.5A6.72,6.72,0,0,0,193.24,125.22Z" transform="translate(-20.18 -45.84)"/><path class="cls-1" d="M225.23,103.24l-26.15.8a3,3,0,0,1-3.06-2.89L196,98.89a3,3,0,0,1,2.89-3.06L225,95a3,3,0,0,1,3.06,2.88l.07,2.27A3,3,0,0,1,225.23,103.24Z" transform="translate(-20.18 -45.84)"/><path class="cls-1" d="M264.6,105.06l-26.15.78a3,3,0,0,1-3.06-2.88l-.07-2.26a3,3,0,0,1,2.88-3.06l26.15-.79a3,3,0,0,1,3.06,2.88l.07,2.27A3,3,0,0,1,264.6,105.06Z" transform="translate(-20.18 -45.84)"/><path class="cls-1" d="M302.91,99.79l-26.16.79a3,3,0,0,1-3.06-2.88l-.06-2.26a3,3,0,0,1,2.88-3.06l26.15-.79a3,3,0,0,1,3.06,2.88l.07,2.26A3,3,0,0,1,302.91,99.79Z" transform="translate(-20.18 -45.84)"/><path class="cls-1" d="M300.39,149.7l-95.15,1.19c-5.52.07-8.63,4.19-5.28,7a57.23,57.23,0,0,0,13.85,8.43,9.43,9.43,0,0,0,3.92.81l70.58-.89a9.4,9.4,0,0,0,3.9-.9,57.88,57.88,0,0,0,13.64-8.78C309.12,153.67,305.91,149.63,300.39,149.7Z" transform="translate(-20.18 -45.84)"/><path class="cls-1" d="M301.45,85.5q-4.05-15.82-13.51-25a1.13,1.13,0,0,0,.22-.11,1.32,1.32,0,0,0,.65-1.79c-.37-.72-1-.55-1.65-.16a2.16,2.16,0,0,0-.76.65A41.36,41.36,0,0,0,276,52.46c.12-1.26-.82-1.69-2-1.88a2.43,2.43,0,0,0-2,.3,66,66,0,0,0-23.26-3l-.48,0a2,2,0,0,0-.21-1.22c-.61-1.19-1.62-.91-2.72-.26-.83.49-1.47,1.05-1.47,1.81a60.23,60.23,0,0,0-13.36,3,2.55,2.55,0,0,0-1.77-1.09c-1.22-.31-2.27-.29-2.55,1a1.92,1.92,0,0,0,.32,1.63,59.71,59.71,0,0,0-15.77,10,1.39,1.39,0,0,0-.1-.26c-.37-.72-1-.55-1.65-.16s-1.13.86-.76,1.58a1.07,1.07,0,0,0,.64.57A58.83,58.83,0,0,0,196.8,81c-2.82,5.73,1.1,12.66,7.14,12.69L300,87.54A1.59,1.59,0,0,0,301.45,85.5Z" transform="translate(-20.18 -45.84)"/><path class="cls-2" d="M215.53,68.25a2.18,2.18,0,0,1-1.07,3,1.91,1.91,0,0,1-2.9-.62c-.6-1.18.16-2,1.26-2.6S214.93,67.06,215.53,68.25Z" transform="translate(-20.18 -45.84)"/><path class="cls-2" d="M248.4,61.42a2.2,2.2,0,0,1-1.07,3c-1.1.64-2.29.56-2.9-.62s.16-1.95,1.25-2.6S247.79,60.23,248.4,61.42Z" transform="translate(-20.18 -45.84)"/><path class="cls-2" d="M236.57,65.54a2.19,2.19,0,0,1-1.08,3c-1.1.65-2.29.57-2.9-.61s.16-2,1.26-2.6S236,64.36,236.57,65.54Z" transform="translate(-20.18 -45.84)"/><path class="cls-2" d="M276,60.59a2.18,2.18,0,0,1-1.08,2.95,1.9,1.9,0,0,1-2.9-.61c-.6-1.19.16-2,1.26-2.6S275.36,59.4,276,60.59Z" transform="translate(-20.18 -45.84)"/><path class="cls-2" d="M238,57.49c-.89.94-2.06.64-2.94-.33A2.24,2.24,0,0,1,234.8,54c.9-.94,1.79-.35,2.67.61S238.88,56.54,238,57.49Z" transform="translate(-20.18 -45.84)"/><path class="cls-2" d="M226.16,59.6a2,2,0,0,1-2.51,1.66,2.09,2.09,0,0,1-2-2.37c.17-1.33,1.21-1.45,2.45-1.26S226.33,58.26,226.16,59.6Z" transform="translate(-20.18 -45.84)"/><path class="cls-2" d="M258.46,55.36A2,2,0,0,1,256,57a2.08,2.08,0,0,1-2-2.37c.17-1.33,1.22-1.45,2.45-1.25S258.63,54,258.46,55.36Z" transform="translate(-20.18 -45.84)"/><path class="cls-2" d="M290.19,70.79a2,2,0,0,1-2.51,1.66,2.09,2.09,0,0,1-2-2.37c.18-1.33,1.22-1.45,2.46-1.26S290.37,69.45,290.19,70.79Z" transform="translate(-20.18 -45.84)"/><path class="cls-2" d="M256.59,68.47a2,2,0,0,1-2.51,1.66,2.08,2.08,0,0,1-2-2.36c.17-1.34,1.21-1.46,2.45-1.26S256.76,67.14,256.59,68.47Z" transform="translate(-20.18 -45.84)"/><polyline class="cls-3" points="65.58 272.9 0.9 209.91 65.58 145.48"/><polyline class="cls-3" points="394.15 272.9 458.82 209.91 394.15 145.48"/><polyline class="cls-3" points="298.46 78.37 429.2 209.1 229.7 408.6 30.21 209.1 160.14 79.17"/><text class="cls-4" transform="matrix(0.98, 0, 0, 1, 87.7, 222.09)">BU<tspan class="cls-5" x="80.07" y="0">R</tspan><tspan class="cls-6" x="122.15" y="0">GERS</tspan></text><line class="cls-3" x1="135.56" y1="136.44" x2="323.81" y2="136.44"/><path class="cls-7" d="M155.74,305c7.84,0,7.84,12.84,15.68,12.84S179.26,305,187.11,305s7.84,12.84,15.68,12.84S210.63,305,218.48,305s7.84,12.84,15.68,12.84S242,305,249.85,305s7.84,12.84,15.68,12.84S273.37,305,281.22,305s7.84,12.84,15.68,12.84S304.75,305,312.59,305s7.85,12.84,15.7,12.84S336.14,305,344,305" transform="translate(-20.18 -45.84)"/><text class="cls-8" transform="matrix(0.98, 0.01, -0.01, 1, 170.03, 324.25)">T<tspan class="cls-9" x="22.09" y="0">asty!</tspan></text><polygon class="cls-1" points="196.65 375.55 262.76 375.55 229.7 408.6 196.65 375.55"/></g></svg>